Coordinates
version=1
nRows=60
nColumns=12
inDegrees=yes

Units are S.I. units (second, meters, Newtons, ...)
Angles are in degrees

endheader
time	SC_y	SC_z	SC_x	AC_y	AC_z	AC_x	GH_y	GH_z	GH_yy	EL_x	PS_y
       0.0              -41.58          11.73          56.14          42.57          6.813         -7.355         -36.63          7.118          141.3          82.44          22.11
   0.02555              -41.58          11.73          56.13          42.58          6.809         -7.356         -36.63          7.126          141.2          82.44          22.11
    0.0511              -41.58          11.73          56.13          42.58          6.805         -7.356         -36.63          7.135          141.2          82.44          22.12
   0.07665              -41.57          11.74          56.12          42.58          6.801         -7.356         -36.63          7.144          141.1          82.43          22.12
    0.1022              -41.57          11.74          56.12          42.59          6.797         -7.357         -36.62          7.154          141.1          82.43          22.13
    0.1278              -41.56          11.75          56.11          42.59          6.792         -7.357         -36.62          7.165          141.0          82.42          22.14
    0.1533              -41.56          11.75           56.1           42.6          6.787         -7.358         -36.62          7.176          141.0          82.42          22.14
    0.1789              -41.56          11.76           56.1           42.6          6.782         -7.358         -36.62          7.189          140.9          82.41          22.15
    0.2044              -41.55          11.76          56.09          42.61          6.776         -7.359         -36.61          7.202          140.9          82.41          22.16
      0.23              -41.55          11.77          56.08          42.61           6.77         -7.359         -36.61          7.216          140.8           82.4          22.17
    0.2555              -41.54          11.77          56.07          42.62          6.764          -7.36         -36.61          7.231          140.7           82.4          22.18
    0.2811              -41.53          11.78          56.07          42.63          6.757         -7.361         -36.61          7.247          140.7          82.39          22.19
    0.3066              -41.53          11.79          56.06          42.63          6.749         -7.361          -36.6          7.264          140.6          82.38           22.2
    0.3322              -41.52           11.8          56.05          42.64          6.741         -7.362          -36.6          7.283          140.5          82.37          22.21
    0.3577              -41.51           11.8          56.03          42.65          6.732         -7.363         -36.59          7.304          140.4          82.36          22.23
    0.3833              -41.51          11.81          56.02          42.66          6.722         -7.364         -36.59          7.326          140.3          82.36          22.24
    0.4088               -41.5          11.82          56.01          42.67          6.712         -7.365         -36.59           7.35          140.2          82.34          22.26
    0.4344              -41.49          11.83          55.99          42.68          6.701         -7.366         -36.58          7.376          140.1          82.33          22.27
    0.4599              -41.48          11.85          55.98          42.69          6.688         -7.367         -36.57          7.405          140.0          82.32          22.29
    0.4855              -41.47          11.86          55.96           42.7          6.675         -7.368         -36.57          7.436          139.8          82.31          22.31
     0.511              -41.45          11.87          55.94          42.72           6.66          -7.37         -36.56           7.47          139.7          82.29          22.34
    0.5366              -41.44          11.89          55.92          42.73          6.643         -7.371         -36.55          7.508          139.5          82.28          22.36
    0.5621              -41.42          11.91           55.9          42.75          6.625         -7.373         -36.55           7.55          139.3          82.26          22.39
    0.5877              -41.41          11.93          55.87          42.77          6.605         -7.375         -36.54          7.596          139.1          82.24          22.42
    0.6132              -41.39          11.95          55.84          42.79          6.583         -7.377         -36.53          7.648          138.9          82.22          22.45
    0.6388              -41.37          11.97          55.81          42.82          6.558         -7.379         -36.52          7.705          138.6          82.19          22.49
    0.6643              -41.34           12.0          55.77          42.84           6.53         -7.382          -36.5           7.77          138.3          82.17          22.53
    0.6899              -41.32          12.03          55.73          42.87          6.499         -7.385         -36.49          7.842          138.0          82.13          22.58
    0.7154              -41.29          12.06          55.69          42.91          6.463         -7.388         -36.47          7.924          137.6           82.1          22.63
     0.741              -41.25           12.1          55.64          42.95          6.423         -7.392         -36.45          8.017          137.2          82.06          22.69
    0.7665              -41.21          12.14          55.58          42.99          6.377         -7.396         -36.43          8.123          136.7          82.01          22.76
    0.7921              -41.17          12.19          55.51          43.04          6.324         -7.401         -36.41          8.245          136.2          81.96          22.84
    0.8176              -41.12          12.25          55.43           43.1          6.263         -7.407         -36.38          8.385          135.5           81.9          22.94
    0.8432              -41.06          12.32          55.34          43.17          6.192         -7.413         -36.35          8.548          134.8          81.83          23.04
    0.8687              -40.99           12.4          55.23          43.25          6.109         -7.421         -36.31          8.739          133.9          81.75          23.17
    0.8943               -40.9          12.49          55.11          43.34          6.012          -7.43         -36.27          8.965          132.9          81.66          23.31
    0.9198              -40.81          12.61          54.96          43.45          5.896         -7.441         -36.22          9.232          131.7          81.54          23.49
    0.9454              -40.69          12.74          54.78          43.59          5.757         -7.454         -36.15          9.553          130.2           81.4           23.7
    0.9709              -40.55           12.9          54.57          43.75          5.588          -7.47         -36.08          9.941          128.5          81.24          23.95
    0.9965              -40.37           13.1           54.3          43.95          5.383         -7.489         -35.99          10.42          126.3          81.04          24.27
     1.022              -40.16          13.34          53.98          44.19          5.129         -7.513         -35.87           11.0          123.7          80.79          24.65
     1.048              -39.89          13.64          53.57           44.5          4.813         -7.542         -35.73          11.73          120.4          80.47          25.13
     1.073              -39.55          14.02          53.06          44.88          4.414          -7.58         -35.55          12.65          116.2          80.08          25.73
     1.099              -39.13          14.51          52.41          45.37          3.908         -7.627         -35.32          13.82          110.9          79.58          26.49
     1.124              -38.58          15.13          51.58          45.99          3.259         -7.688         -35.03          15.31          104.2          78.95          27.47
      1.15              -37.87          15.93          50.51          46.79          2.427         -7.765         -34.65          17.23          95.48          78.13          28.73
     1.175              -36.97          16.95          49.14          47.82          1.364         -7.865         -34.17          19.68          84.38          77.08          30.34
     1.201              -35.84          18.23          47.43           49.1        0.02727          -7.99         -33.57          22.77          70.43          75.76          32.35
     1.226              -34.47          19.79          45.34          50.67         -1.602         -8.142         -32.83          26.52          53.42          74.16          34.82
     1.252              -32.87           21.6          42.91          52.49          -3.49         -8.319         -31.98          30.88          33.71           72.3          37.67
     1.278              -31.14          23.56          40.29          54.46         -5.534          -8.51         -31.06          35.59          12.37          70.29          40.76
     1.303              -29.41          25.51          37.66          56.42         -7.578         -8.701         -30.13           40.3          -8.97          68.27          43.84
     1.329              -27.82          27.32          35.24          58.24         -9.466         -8.877         -29.28          44.66         -28.68          66.42           46.7
     1.354              -26.44          28.88          33.15          59.81         -11.09          -9.03         -28.55          48.42         -45.68          64.81          49.16
      1.38              -25.31          30.16          31.43           61.1         -12.43         -9.155         -27.94           51.5         -59.64           63.5          51.17
     1.405              -24.41          31.18          30.07          62.12         -13.49         -9.254         -27.46          53.95         -70.73          62.45          52.78
     1.431               -23.7          31.98           29.0          62.92         -14.33         -9.332         -27.09          55.87         -79.42          61.63          54.04
     1.456              -23.16           32.6          28.17          63.54         -14.98         -9.392         -26.79          57.36         -86.19          60.99          55.02
     1.482              -22.73          33.09          27.52          64.03         -15.48          -9.44         -26.57          58.53         -91.48          60.49          55.78
     1.507              -22.39          33.47           27.0          64.42         -15.88         -9.477         -26.39          59.45         -95.64           60.1          56.38
